<?xml version="1.0" encoding="UTF-8"?>
<svg xmlns="http://www.w3.org/2000/svg" xmlns:xlink="http://www.w3.org/1999/xlink" width="64pt" height="64pt" viewBox="0 0 64 64" version="1.1">
<g id="surface1">
<path style=" stroke:none;fill-rule:evenodd;fill:rgb(0%,60%,100%);fill-opacity:1;" d="M 32 2.558594 L 32 61.441406 C 15.742188 61.441406 2.558594 48.257812 2.558594 32 C 2.558594 15.742188 15.742188 2.558594 32 2.558594 Z M 32 2.558594 "/>
<path style=" stroke:none;fill-rule:evenodd;fill:rgb(0%,51.372549%,85.882353%);fill-opacity:1;" d="M 32 2.558594 L 32 61.441406 C 48.257812 61.441406 61.441406 48.257812 61.441406 32 C 61.441406 15.742188 48.257812 2.558594 32 2.558594 Z M 32 2.558594 "/>
<path style=" stroke:none;fill-rule:evenodd;fill:rgb(94.901961%,94.901961%,94.901961%);fill-opacity:1;" d="M 25.984375 41.601562 C 25.984375 38.910156 26.496094 36.863281 27.390625 35.585938 C 28.289062 34.304688 30.078125 32.769531 32.511719 30.976562 C 33.792969 30.207031 34.816406 29.183594 35.585938 28.03125 C 36.351562 26.878906 36.609375 25.472656 36.609375 23.9375 C 36.609375 22.273438 36.222656 20.992188 35.328125 20.097656 C 34.558594 19.070312 33.28125 18.6875 31.742188 18.6875 C 30.464844 18.6875 29.3125 19.070312 28.542969 19.839844 C 27.648438 20.609375 27.136719 21.761719 27.136719 23.296875 L 17.664062 23.296875 L 17.664062 23.167969 C 17.664062 19.199219 18.816406 16.128906 21.503906 14.207031 C 24.0625 12.160156 27.519531 11.136719 31.742188 11.136719 C 36.222656 11.136719 39.808594 12.289062 42.367188 14.59375 C 45.054688 16.894531 46.335938 19.96875 46.335938 23.9375 C 46.335938 26.238281 45.566406 28.542969 44.160156 30.464844 C 42.753906 32.511719 40.960938 34.046875 38.785156 35.199219 C 37.503906 35.96875 36.734375 36.863281 36.351562 37.761719 C 35.839844 38.785156 35.710938 39.9375 35.710938 41.601562 Z M 35.585938 53.503906 L 25.984375 53.503906 L 25.984375 45.695312 L 35.585938 45.695312 Z M 35.585938 53.503906 "/>
<path style=" stroke:none;fill-rule:evenodd;fill:rgb(84.705882%,84.705882%,84.705882%);fill-opacity:1;" d="M 32 11.136719 L 32 18.6875 C 33.40625 18.6875 34.558594 19.199219 35.328125 20.097656 C 36.222656 20.992188 36.609375 22.273438 36.609375 23.9375 C 36.609375 25.472656 36.351562 26.878906 35.585938 28.03125 C 34.816406 29.183594 33.792969 30.207031 32.511719 30.976562 C 32.382812 31.105469 32.128906 31.230469 32 31.359375 L 32 41.601562 L 35.710938 41.601562 C 35.710938 39.9375 35.839844 38.785156 36.351562 37.761719 C 36.734375 36.863281 37.503906 35.96875 38.785156 35.199219 C 40.960938 34.046875 42.753906 32.511719 44.160156 30.464844 C 45.566406 28.542969 46.335938 26.238281 46.335938 23.9375 C 46.335938 19.96875 45.054688 16.894531 42.367188 14.59375 C 39.9375 12.414062 36.351562 11.265625 32 11.136719 Z M 32 45.695312 L 32 53.503906 L 35.585938 53.503906 L 35.585938 45.695312 Z M 32 45.695312 "/>
</g>
</svg>
