<?xml version="1.0" encoding="UTF-8"?>
<svg xmlns="http://www.w3.org/2000/svg" xmlns:xlink="http://www.w3.org/1999/xlink" width="64pt" height="64pt" viewBox="0 0 64 64" version="1.1">
<defs>
<filter id="alpha" filterUnits="objectBoundingBox" x="0%" y="0%" width="100%" height="100%">
  <feColorMatrix type="matrix" in="SourceGraphic" values="0 0 0 0 1 0 0 0 0 1 0 0 0 0 1 0 0 0 1 0"/>
</filter>
<mask id="mask0">
  <g filter="url(#alpha)">
<rect x="0" y="0" width="64" height="64" style="fill:rgb(0%,0%,0%);fill-opacity:0.2;stroke:none;"/>
  </g>
</mask>
<clipPath id="clip1">
  <rect width="64" height="64"/>
</clipPath>
<g id="surface6" clip-path="url(#clip1)">
<path style=" stroke:none;fill-rule:nonzero;fill:rgb(0%,0%,0%);fill-opacity:1;" d="M 30 15.992188 L 34 15.992188 L 34 41.992188 L 30 41.992188 Z M 30 47.996094 L 34 47.996094 L 34 51.996094 L 30 51.996094 Z M 30 47.996094 "/>
</g>
<mask id="mask1">
  <g filter="url(#alpha)">
<rect x="0" y="0" width="64" height="64" style="fill:rgb(0%,0%,0%);fill-opacity:0.2;stroke:none;"/>
  </g>
</mask>
<clipPath id="clip2">
  <rect width="64" height="64"/>
</clipPath>
<g id="surface9" clip-path="url(#clip2)">
<path style=" stroke:none;fill-rule:nonzero;fill:rgb(100%,100%,100%);fill-opacity:1;" d="M 32 4 C 16.488281 4 4 16.488281 4 32 C 4 32.339844 4.039062 32.664062 4.050781 33 C 4.578125 17.957031 16.824219 6 32 6 C 47.175781 6 59.421875 17.957031 59.949219 33 C 59.960938 32.664062 60 32.339844 60 32 C 60 16.488281 47.511719 4 32 4 Z M 32 4 "/>
</g>
<mask id="mask2">
  <g filter="url(#alpha)">
<rect x="0" y="0" width="64" height="64" style="fill:rgb(0%,0%,0%);fill-opacity:0.2;stroke:none;"/>
  </g>
</mask>
<clipPath id="clip3">
  <rect width="64" height="64"/>
</clipPath>
<g id="surface12" clip-path="url(#clip3)">
<path style=" stroke:none;fill-rule:nonzero;fill:rgb(0%,0%,0%);fill-opacity:1;" d="M 4.050781 33 C 4.039062 33.335938 4 33.660156 4 34 C 4 49.511719 16.488281 62 32 62 C 47.511719 62 60 49.511719 60 34 C 60 33.664062 59.960938 33.335938 59.949219 33 C 59.421875 48.042969 47.171875 60 32 60 C 16.824219 60 4.578125 48.042969 4.050781 33 Z M 4.050781 33 "/>
</g>
</defs>
<g id="surface1">
<path style=" stroke:none;fill-rule:nonzero;fill:rgb(85.882353%,23.529412%,18.823529%);fill-opacity:1;" d="M 60 32 C 60 16.535156 47.464844 4 32 4 C 16.535156 4 4 16.535156 4 32 C 4 47.464844 16.535156 60 32 60 C 47.464844 60 60 47.464844 60 32 Z M 60 32 "/>
<use xlink:href="#surface6" mask="url(#mask0)"/>
<path style=" stroke:none;fill-rule:nonzero;fill:rgb(100%,100%,100%);fill-opacity:1;" d="M 30 13.992188 L 34 13.992188 L 34 39.992188 L 30 39.992188 Z M 30 45.996094 L 34 45.996094 L 34 49.996094 L 30 49.996094 Z M 30 45.996094 "/>
<use xlink:href="#surface9" mask="url(#mask1)"/>
<use xlink:href="#surface12" mask="url(#mask2)"/>
</g>
</svg>
